<svg width="59" height="60" viewBox="0 0 59 60" fill="none" xmlns="http://www.w3.org/2000/svg">
<g clip-path="url(#clip0_0_312)">
<path d="M21.5331 0.609497L0.595337 21.8994V22.8349L22.4545 0.609497H21.5331Z" fill="white"/>
<path d="M5.86876 0.609497L0.595337 5.9674V6.90291L6.79019 0.609497H5.86876Z" fill="white"/>
<path d="M26.7498 0.609497L0.595337 27.2006V28.1361L27.6713 0.609497H26.7498Z" fill="white"/>
<path d="M16.3164 0.609497L0.595337 16.584V17.5195L17.2378 0.609497H16.3164Z" fill="white"/>
<path d="M11.0855 0.609497L0.595337 11.2828V12.2183L12.0069 0.609497H11.0855Z" fill="white"/>
<path d="M31.9666 0.609497L0.595337 32.5159V33.4515L32.888 0.609497H31.9666Z" fill="white"/>
<path d="M42.0031 59.3905H42.9245L58.3904 43.657V42.7215L42.0031 59.3905Z" fill="white"/>
<mask id="mask0_0_312" style="mask-type:luminance" maskUnits="userSpaceOnUse" x="0" y="0" width="59" height="60">
<path d="M59 0H0V60H59V0Z" fill="white"/>
</mask>
<g mask="url(#mask0_0_312)">
<path d="M13.1126 25.0886L0.595337 37.8171V38.7526L12.7866 26.3643C12.8716 25.939 12.9851 25.5138 13.1126 25.1027" fill="white"/>
<path d="M25.9134 13.012L38.1047 0.609497H37.1833L24.666 13.3381C25.0771 13.2105 25.4882 13.0971 25.9134 13.012Z" fill="white"/>
</g>
<path d="M47.2198 59.3905H48.1413L58.3904 48.9724V48.0369L47.2198 59.3905Z" fill="white"/>
<path d="M36.7864 59.3905H37.7078L58.3904 38.3558V37.4203L36.7864 59.3905Z" fill="white"/>
<path d="M52.4366 59.3905H53.358L58.3904 54.2736V53.3381L52.4366 59.3905Z" fill="white"/>
<mask id="mask1_0_312" style="mask-type:luminance" maskUnits="userSpaceOnUse" x="0" y="0" width="59" height="60">
<path d="M59 0H0V60H59V0Z" fill="white"/>
</mask>
<g mask="url(#mask1_0_312)">
<path d="M14.9839 39.107L0.595337 53.7349V54.4862C0.595337 54.4862 0.609513 54.5996 0.609513 54.6563L15.3241 39.6881C15.1965 39.5039 15.0973 39.2913 14.9697 39.107" fill="white"/>
<path d="M39.0261 15.5918L53.7407 0.623671C53.7407 0.623671 53.6273 0.609497 53.5848 0.609497H52.8476L38.4733 15.2374C38.6576 15.3508 38.856 15.4642 39.0403 15.5918" fill="white"/>
</g>
<path d="M31.5697 59.3905H32.4911L58.3905 33.0404V32.1049L31.5697 59.3905Z" fill="white"/>
<mask id="mask2_0_312" style="mask-type:luminance" maskUnits="userSpaceOnUse" x="0" y="0" width="59" height="60">
<path d="M59 0H0V60H59V0Z" fill="white"/>
</mask>
<g mask="url(#mask2_0_312)">
<path d="M13.2969 35.5067L0.595337 48.4337V49.3692L13.5521 36.2013C13.467 35.9745 13.382 35.7477 13.2969 35.5209" fill="white"/>
<path d="M35.5956 13.7775L48.5382 0.609497H47.6167L34.9152 13.5223C35.142 13.6074 35.3688 13.6924 35.5956 13.7775Z" fill="white"/>
<path d="M20.1155 44.5074L5.48602 59.3905H6.40746L20.6967 44.8618C20.4983 44.7484 20.314 44.635 20.1297 44.5074" fill="white"/>
<path d="M43.7609 20.4678C43.8884 20.652 43.9877 20.8505 44.1153 21.0489L58.4045 6.52022V5.58472L43.775 20.4678H43.7609Z" fill="white"/>
<path d="M31.4137 12.7286L43.3214 0.609497H42.4L30.549 12.6719C30.8325 12.686 31.1302 12.7002 31.4137 12.7286Z" fill="white"/>
<path d="M12.4605 31.0701L0.595337 43.1183V44.0538L12.5031 31.9348C12.4747 31.6513 12.4605 31.3536 12.4464 31.056" fill="white"/>
<path d="M41.8471 18.0298L57.2421 2.38134C57.1004 2.21125 56.9586 2.05533 56.7885 1.89941L41.3793 17.5621C41.5353 17.718 41.677 17.8739 41.833 18.0298" fill="white"/>
<path d="M17.2661 42.0978L1.85693 57.7604C1.99869 57.9305 2.1688 58.0723 2.32474 58.214L17.7197 42.5514C17.5638 42.3955 17.4079 42.2537 17.2519 42.0836" fill="white"/>
<path d="M33.4125 46.9029L21.1362 59.3905H22.0576L34.6741 46.5627C34.263 46.6903 33.8378 46.8037 33.4125 46.9029Z" fill="white"/>
<path d="M45.788 35.2516L58.4046 22.4238V21.4883L46.1282 33.9759C46.029 34.4011 45.9156 34.8405 45.788 35.2516Z" fill="white"/>
</g>
<path d="M26.353 59.3905H27.2744L58.3904 27.7392V26.8037L26.353 59.3905Z" fill="white"/>
<mask id="mask3_0_312" style="mask-type:luminance" maskUnits="userSpaceOnUse" x="0" y="0" width="59" height="60">
<path d="M59 0H0V60H59V0Z" fill="white"/>
</mask>
<g mask="url(#mask3_0_312)">
<path d="M45.7597 24.6775L58.3905 11.8214V10.8859L45.5046 23.9971C45.5896 24.2239 45.6747 24.4507 45.7456 24.6775" fill="white"/>
<path d="M23.5886 46.2934L10.7028 59.4047H11.6242L24.2549 46.5485C24.0281 46.4777 23.8013 46.3784 23.5745 46.2934" fill="white"/>
<path d="M27.7989 47.2998L15.9053 59.3905H16.8268L28.6636 47.3423C28.3659 47.3423 28.0824 47.3282 27.7847 47.2998" fill="white"/>
<path d="M46.5536 29.1708L58.3904 17.1226V16.1871L46.511 28.2778C46.5394 28.5755 46.5394 28.8731 46.5536 29.1708Z" fill="white"/>
<path d="M43.9452 30.0071C43.9452 22.5372 38.4024 16.1729 31.1869 15.3083V19.5889H27.813V15.3083C20.5834 16.1587 15.0548 22.4096 15.0548 30.0071C15.0548 37.6045 20.5975 43.8412 27.813 44.7059V40.4252H31.1869V44.7059C38.4166 43.8554 43.9452 37.6045 43.9452 30.0071ZM45.1501 30.0071C45.1501 38.3416 38.771 45.3154 30.5773 45.9249H30.2655V41.2615H28.6636V45.9249H28.4084C20.229 45.3154 13.8356 38.3274 13.8356 30.0071C13.8356 21.6867 20.2148 14.6988 28.4084 14.0893H28.6778V18.7385H30.2797V14.0893H30.5773C38.771 14.6988 45.1501 21.6867 45.1501 30.0071Z" fill="white"/>
<path d="M20.952 28.0369C19.8888 28.0369 19.024 28.9157 19.024 29.9929C19.024 31.0702 19.8888 31.949 20.952 31.949C22.0152 31.949 22.8799 31.0702 22.8799 29.9929C22.8799 28.9157 22.0152 28.0369 20.952 28.0369ZM20.952 33.1822C19.2225 33.1822 17.8191 31.7506 17.8191 29.9929C17.8191 28.2353 19.2225 26.8037 20.952 26.8037C22.6814 26.8037 24.0848 28.2353 24.0848 29.9929C24.0848 31.7506 22.6814 33.1822 20.952 33.1822Z" fill="white"/>
<path d="M38.048 28.0369C36.9848 28.0369 36.1201 28.9157 36.1201 29.9929C36.1201 31.0702 36.9848 31.949 38.048 31.949C39.1112 31.949 39.976 31.0702 39.976 29.9929C39.976 28.9157 39.1112 28.0369 38.048 28.0369ZM38.048 33.1822C36.3186 33.1822 34.9152 31.7506 34.9152 29.9929C34.9152 28.2353 36.3186 26.8037 38.048 26.8037C39.7775 26.8037 41.1809 28.2353 41.1809 29.9929C41.1809 31.7506 39.7775 33.1822 38.048 33.1822Z" fill="white"/>
<path d="M29.5 13.2247C20.3991 13.2247 12.9993 20.7512 12.9993 30.0071C12.9993 39.2629 20.3991 46.7895 29.5 46.7895C38.6009 46.7895 46.0007 39.2629 46.0007 30.0071C46.0007 20.7512 38.6009 13.2247 29.5 13.2247ZM29.5 48.0085C19.747 48.0085 11.7943 39.9291 11.7943 30.0071C11.7943 20.085 19.7328 12.0057 29.5 12.0057C39.2672 12.0057 47.2057 20.085 47.2057 30.0071C47.2057 39.9291 39.2672 48.0085 29.5 48.0085ZM5.41518 1.21899C3.09034 1.21899 1.20495 3.1467 1.20495 5.51382V54.5004C1.20495 56.8675 3.09034 58.781 5.41518 58.781H53.5706C55.8955 58.781 57.7809 56.8533 57.7809 54.5004V5.51382C57.7809 3.1467 55.8955 1.23317 53.5706 1.23317H5.41518V1.21899ZM53.5848 60H5.41518C2.42408 60 0 57.5337 0 54.5004V5.51382C0 2.46634 2.42408 0 5.41518 0H53.5706C56.5618 0 58.9858 2.46634 58.9858 5.51382V54.5004C58.9858 57.5337 56.5618 60.0142 53.5706 60.0142" fill="white"/>
</g>
</g>
<defs>
<clipPath id="clip0_0_312">
<rect width="59" height="60" fill="white"/>
</clipPath>
</defs>
</svg>
