<svg width="256" height="40" viewBox="0 0 256 40" fill="none" xmlns="http://www.w3.org/2000/svg">
<g clip-path="url(#clip0_51_265)">
<path d="M-0.00012207 0V40H39.9999V35.3174H12.8465V4.697H39.9999V0H-0.00012207Z" fill="#0020DD"/>
<path d="M39.9999 22.2153H18.2952V30.6347H39.9999V22.2153Z" fill="#0020DD"/>
<path d="M39.9999 9.37964H18.2952V17.5293H39.9999V9.37964Z" fill="#0020DD"/>
<path d="M84.6538 9.3797H62.9562V17.5293H84.6538V22.2119H62.9562V30.6313H84.6538V35.3139H57.5076V4.70068H84.6538V9.38329V9.3797Z" fill="black"/>
<path d="M118.277 9.3797H96.5796V17.9321H118.277V22.6147H96.5796V35.3103H91.131V4.70068H118.277V9.38329V9.3797Z" fill="black"/>
<path d="M222.629 9.3797H200.931V17.5293H222.629V22.2119H200.931V30.6313H222.629V35.3139H195.483V4.70068H222.629V9.38329V9.3797Z" fill="black"/>
<path d="M234.551 30.6277H255.35V35.3103H229.106V4.70068H234.555V30.6313L234.551 30.6277Z" fill="black"/>
<path d="M160.69 4.70068V35.3103H166.139V24.1001H189.009V4.70068H160.694H160.69ZM166.135 19.4211V9.38329H183.557V19.4211H166.135Z" fill="black"/>
<path d="M142.73 4.70068H133.717L122.233 21.7624H122.266V35.3139H127.714V26.445H148.764V35.3139H154.213V21.7624L142.73 4.70068ZM128.401 21.7588L136.734 9.3797H139.712L148.045 21.7588H128.401Z" fill="black"/>
<path d="M248.308 4.70068H255.35V11.7426H248.308V4.70068ZM248.88 11.1707H254.781V5.26893H248.88V11.1707Z" fill="black"/>
<path d="M253.526 8.71071V6.38379H250.131V10.0522H250.782V8.70711H251.832L252.771 10.0522H253.523L252.584 8.70711H253.523L253.526 8.71071ZM250.786 6.94844H252.875V8.15325H250.786V6.94844Z" fill="black"/>
</g>
<defs>
<clipPath id="clip0_51_265">
<rect width="255.35" height="40" fill="white"/>
</clipPath>
</defs>
</svg>
