<svg width="60" height="60" viewBox="0 0 60 60" fill="none" xmlns="http://www.w3.org/2000/svg">
<g clip-path="url(#clip0_0_367)">
<mask id="mask0_0_367" style="mask-type:luminance" maskUnits="userSpaceOnUse" x="0" y="0" width="60" height="60">
<path d="M60 0H0V60H60V0Z" fill="white"/>
</mask>
<g mask="url(#mask0_0_367)">
<path d="M47.6985 48.6509H12.2384C11.805 48.6509 11.4529 48.2988 11.4529 47.8655V12.4054C11.4529 11.972 11.805 11.6199 12.2384 11.6199H47.6985C48.1318 11.6199 48.484 11.972 48.484 12.4054V47.8655C48.484 48.2988 48.1318 48.6509 47.6985 48.6509ZM12.2384 11.9043C11.963 11.9043 11.7373 12.13 11.7373 12.4054V47.8655C11.7373 48.1408 11.963 48.3665 12.2384 48.3665H47.6985C47.9738 48.3665 48.1996 48.1408 48.1996 47.8655V12.4054C48.1996 12.13 47.9738 11.9043 47.6985 11.9043H12.2384Z" fill="white"/>
<path d="M50.4703 51.1835H9.50721C9.10995 51.1835 8.78943 50.863 8.78943 50.4657V9.50721C8.78943 9.10995 9.10995 8.78943 9.50721 8.78943H50.4703C50.8675 8.78943 51.188 9.10995 51.188 9.50721V50.4703C51.188 50.8675 50.8675 51.188 50.4703 51.188V51.1835ZM9.50721 8.92937C9.1912 8.92937 8.92937 9.18669 8.92937 9.50721V50.4703C8.92937 50.7863 9.18669 51.0481 9.50721 51.0481H50.4703C50.7863 51.0481 51.0481 50.7908 51.0481 50.4703V9.50721C51.0481 9.1912 50.7908 8.92937 50.4703 8.92937H9.50721Z" fill="white"/>
<path d="M59.7021 60H0.30246C0.13543 60 0 59.8646 0 59.6975V0.30246C0 0.13543 0.13543 0 0.30246 0H59.7021C59.8691 0 60.0045 0.13543 60.0045 0.30246V59.7021C60.0045 59.8691 59.8691 60.0045 59.7021 60.0045V60ZM0.30246 0.279889L0.284403 59.6975L59.7021 59.7156C59.7021 59.7156 59.7201 59.7066 59.7201 59.6975V0.30246L0.30246 0.279889ZM40.4304 42.7959H19.3484C19.046 42.7959 18.7977 42.5476 18.7977 42.2451V18.1025C18.7977 17.8 19.046 17.5517 19.3484 17.5517H40.4304C40.7328 17.5517 40.9811 17.8 40.9811 18.1025V42.2451C40.9811 42.5476 40.7328 42.7959 40.4304 42.7959ZM19.3484 17.8361C19.1995 17.8361 19.0821 17.958 19.0821 18.107V42.2496C19.0821 42.3986 19.204 42.5205 19.3484 42.5205H40.4304C40.5793 42.5205 40.6967 42.3986 40.6967 42.2496V18.107C40.6967 17.958 40.5748 17.8361 40.4304 17.8361H19.3484Z" fill="white"/>
</g>
<path d="M15.3397 42.9584C15.3397 42.9584 15.2991 42.9448 15.2856 42.9268L14.4324 41.6853C14.4098 41.6537 14.4188 41.6086 14.4504 41.586C14.482 41.5634 14.5272 41.5725 14.5497 41.6041L15.3488 42.7688L17.5337 40.1143C17.5563 40.0827 17.6014 40.0827 17.633 40.1053C17.6646 40.1279 17.6691 40.173 17.642 40.2046L15.3984 42.9313C15.3984 42.9313 15.3668 42.9584 15.3442 42.9584H15.3397ZM45.9424 41.4731H42.841C42.8004 41.4731 42.7688 41.4415 42.7688 41.4009C42.7688 41.3603 42.8004 41.3287 42.841 41.3287H45.9424C45.983 41.3287 46.0146 41.3603 46.0146 41.4009C46.0146 41.4415 45.983 41.4731 45.9424 41.4731ZM16.1929 32.0924C16.1929 32.0924 16.1568 32.0833 16.1433 32.0698L14.3105 30.2234C14.3105 30.2234 14.2879 30.1918 14.2924 30.1738C14.2924 30.1557 14.3014 30.1377 14.315 30.1241L16.1478 28.368C16.1749 28.341 16.22 28.341 16.2471 28.368C16.2742 28.3951 16.2742 28.4403 16.2471 28.4674L14.4685 30.1738L16.2471 31.9705C16.2742 31.9976 16.2742 32.0427 16.2471 32.0698C16.2336 32.0833 16.2155 32.0878 16.1975 32.0878L16.1929 32.0924ZM43.4776 32.0924C43.4776 32.0924 43.4415 32.0833 43.4279 32.0698C43.4008 32.0427 43.4008 31.9976 43.4279 31.9705L45.2066 30.2641L43.4279 28.4674C43.4008 28.4403 43.4008 28.3951 43.4279 28.368C43.455 28.341 43.5001 28.341 43.5272 28.368L45.3555 30.2144C45.3555 30.2144 45.3781 30.246 45.3736 30.2641C45.3736 30.2821 45.3646 30.3002 45.351 30.3137L43.5227 32.0698C43.5227 32.0698 43.4911 32.0878 43.4731 32.0878L43.4776 32.0924ZM44.5249 20.3777C44.4843 20.3777 44.4527 20.3461 44.4527 20.3054V18.7345H42.8772C42.8365 18.7345 42.8049 18.7029 42.8049 18.6622C42.8049 18.6216 42.8365 18.59 42.8772 18.59H44.4527V17.0145C44.4527 16.9739 44.4843 16.9423 44.5249 16.9423C44.5655 16.9423 44.5971 16.9739 44.5971 17.0145V18.59H46.1726C46.2133 18.59 46.2449 18.6216 46.2449 18.6622C46.2449 18.7029 46.2133 18.7345 46.1726 18.7345H44.5971V20.3054C44.5971 20.3461 44.5655 20.3777 44.5249 20.3777Z" fill="white"/>
<mask id="mask1_0_367" style="mask-type:luminance" maskUnits="userSpaceOnUse" x="0" y="0" width="60" height="60">
<path d="M60 0H0V60H60V0Z" fill="white"/>
</mask>
<g mask="url(#mask1_0_367)">
<path d="M40.1008 42.3896H19.678C19.4207 42.3896 19.2085 42.1819 19.2085 41.9201V18.5223C19.2085 18.265 19.4162 18.0528 19.678 18.0528H40.1008C40.3581 18.0528 40.5703 18.265 40.5703 18.5223V41.9201C40.5703 42.1774 40.3627 42.3896 40.1008 42.3896ZM19.678 18.1973C19.4974 18.1973 19.353 18.3417 19.353 18.5223V41.9201C19.353 42.1006 19.4974 42.2451 19.678 42.2451H40.1008C40.2814 42.2451 40.4259 42.0961 40.4259 41.9201V18.5223C40.4259 18.3417 40.2814 18.1973 40.1008 18.1973H19.678Z" fill="white"/>
<path d="M15.0914 20.0572C14.2337 20.0572 13.534 19.353 13.534 18.4862C13.534 17.8045 13.9629 17.2041 14.6039 16.992C14.64 16.9784 14.6806 17.001 14.6942 17.0371C14.7077 17.0732 14.6852 17.1138 14.649 17.1274C14.0667 17.3215 13.6739 17.8677 13.6739 18.4862C13.6739 19.2762 14.3105 19.9172 15.0914 19.9172C15.8724 19.9172 16.5089 19.2762 16.5089 18.4862C16.5089 17.949 16.22 17.475 15.7686 17.2267L15.9447 17.4434C15.9672 17.475 15.9627 17.5201 15.9356 17.5427C15.904 17.5653 15.8589 17.5608 15.8363 17.5337L15.4842 17.0958C15.4797 17.0868 15.4752 17.0777 15.4706 17.0687C15.4706 17.0687 15.4706 17.0552 15.4706 17.0461C15.4706 17.0461 15.4797 17.0145 15.4977 17.0055C15.5068 16.9965 15.5203 16.992 15.5338 16.992H15.5429C15.5429 16.992 15.5429 16.992 15.5474 16.992L16.1433 17.0326C16.1839 17.0326 16.211 17.0687 16.211 17.1093C16.211 17.15 16.1794 17.177 16.1343 17.177L15.9221 17.1635C16.3735 17.4434 16.6624 17.9445 16.6624 18.4997C16.6624 19.3665 15.9627 20.0707 15.105 20.0707L15.0914 20.0572ZM15.123 18.0754C15.0824 18.0754 15.0508 18.0438 15.0508 18.0032V16.6037C15.0508 16.5631 15.0824 16.5315 15.123 16.5315C15.1637 16.5315 15.1953 16.5631 15.1953 16.6037V18.0032C15.1953 18.0438 15.1637 18.0754 15.123 18.0754Z" fill="white"/>
</g>
</g>
<defs>
<clipPath id="clip0_0_367">
<rect width="60" height="60" fill="white"/>
</clipPath>
</defs>
</svg>
